{
    "asset" : {
        "generator" : "Khronos glTF Blender I/O v1.7.33",
        "version" : "2.0"
    },
    "extensionsUsed" : [
        "KHR_materials_transmission"
    ],
    "scene" : 0,
    "scenes" : [
        {
            "name" : "Scene",
            "nodes" : [
                1,
                2,
                3,
                4
            ]
        }
    ],
    "nodes" : [
        {
            "mesh" : 0,
            "name" : "Sphere.001",
            "scale" : [
                1.0049998760223389,
                1.005000114440918,
                1.0049999952316284
            ]
        },
        {
            "children" : [
                0
            ],
            "mesh" : 1,
            "name" : "Sphere",
            "rotation" : [
                -0.2033604085445404,
                0.9776929020881653,
                0.010700685903429985,
                -0.05144555866718292
            ]
        },
        {
            "name" : "Circle"
        },
        {
            "name" : "untitled",
            "rotation" : [
                0.7071068286895752,
                0,
                0,
                0.7071067094802856
            ]
        },
        {
            "name" : "untitled.001",
            "rotation" : [
                0.7071068286895752,
                0,
                0,
                0.7071067094802856
            ]
        }
    ],
    "materials" : [
        {
            "doubleSided" : true,
            "extensions" : {
                "KHR_materials_transmission" : {
                    "transmissionFactor" : 1
                }
            },
            "name" : "Material.003",
            "pbrMetallicRoughness" : {
                "baseColorFactor" : [
                    0.800000011920929,
                    0.800000011920929,
                    0.800000011920929,
                    1
                ],
                "metallicFactor" : 0,
                "roughnessFactor" : 0
            }
        },
        {
            "doubleSided" : true,
            "name" : "Material.002",
            "pbrMetallicRoughness" : {
                "baseColorTexture" : {
                    "index" : 0
                },
                "metallicFactor" : 0,
                "roughnessFactor" : 0.5
            }
        }
    ],
    "meshes" : [
        {
            "name" : "Sphere.002",
            "primitives" : [
                {
                    "attributes" : {
                        "POSITION" : 0,
                        "NORMAL" : 1,
                        "TEXCOORD_0" : 2
                    },
                    "indices" : 3,
                    "material" : 0
                }
            ]
        },
        {
            "name" : "Sphere.001",
            "primitives" : [
                {
                    "attributes" : {
                        "POSITION" : 4,
                        "NORMAL" : 5,
                        "TEXCOORD_0" : 6
                    },
                    "indices" : 3,
                    "material" : 1
                }
            ]
        }
    ],
    "textures" : [
        {
            "sampler" : 0,
            "source" : 0
        }
    ],
    "images" : [
        {
            "bufferView" : 7,
            "mimeType" : "image/jpeg",
            "name" : "colors"
        }
    ],
    "accessors" : [
        {
            "bufferView" : 0,
            "componentType" : 5126,
            "count" : 8383,
            "max" : [
                0.9999982714653015,
                1,
                0.9999966621398926
            ],
            "min" : [
                -0.9999975562095642,
                -1,
                -1
            ],
            "type" : "VEC3"
        },
        {
            "bufferView" : 1,
            "componentType" : 5126,
            "count" : 8383,
            "type" : "VEC3"
        },
        {
            "bufferView" : 2,
            "componentType" : 5126,
            "count" : 8383,
            "type" : "VEC2"
        },
        {
            "bufferView" : 3,
            "componentType" : 5123,
            "count" : 48384,
            "type" : "SCALAR"
        },
        {
            "bufferView" : 4,
            "componentType" : 5126,
            "count" : 8383,
            "max" : [
                0.9999982714653015,
                1,
                0.9999966621398926
            ],
            "min" : [
                -0.9999975562095642,
                -1,
                -1
            ],
            "type" : "VEC3"
        },
        {
            "bufferView" : 5,
            "componentType" : 5126,
            "count" : 8383,
            "type" : "VEC3"
        },
        {
            "bufferView" : 6,
            "componentType" : 5126,
            "count" : 8383,
            "type" : "VEC2"
        }
    ],
    "bufferViews" : [
        {
            "buffer" : 0,
            "byteLength" : 100596,
            "byteOffset" : 0
        },
        {
            "buffer" : 0,
            "byteLength" : 100596,
            "byteOffset" : 100596
        },
        {
            "buffer" : 0,
            "byteLength" : 67064,
            "byteOffset" : 201192
        },
        {
            "buffer" : 0,
            "byteLength" : 96768,
            "byteOffset" : 268256
        },
        {
            "buffer" : 0,
            "byteLength" : 100596,
            "byteOffset" : 365024
        },
        {
            "buffer" : 0,
            "byteLength" : 100596,
            "byteOffset" : 465620
        },
        {
            "buffer" : 0,
            "byteLength" : 67064,
            "byteOffset" : 566216
        },
        {
            "buffer" : 0,
            "byteLength" : 2459484,
            "byteOffset" : 633280
        }
    ],
    "samplers" : [
        {
            "magFilter" : 9729,
            "minFilter" : 9987
        }
    ],
    "buffers" : [
        {
            "byteLength" : 3092764,
            "uri" : "data:application/octet-stream;base64,"
        }
    ]
}
