{"accessors":[{"bufferView":0,"componentType":5123,"count":48384,"max":[8382],"min":[0],"type":"SCALAR"},{"bufferView":1,"componentType":5126,"count":8383,"max":[0.9999982714653015,1.0,0.9999966621398926],"min":[-0.9999975562095642,-1.0,-1.0],"type":"VEC3"},{"bufferView":2,"componentType":5126,"count":8383,"max":[1.0,0.999969482421875,1.0],"min":[-1.0,-1.0,-1.0],"type":"VEC3"},{"bufferView":3,"componentType":5126,"count":8383,"max":[1.0,1.0],"min":[0.0,0.0],"type":"VEC2"},{"bufferView":4,"componentType":5123,"count":48384,"max":[8382],"min":[0],"type":"SCALAR"},{"bufferView":5,"componentType":5126,"count":8383,"max":[0.9999982714653015,1.0,0.9999966621398926],"min":[-0.9999975562095642,-1.0,-1.0],"type":"VEC3"},{"bufferView":6,"componentType":5126,"count":8383,"max":[1.0,0.999969482421875,1.0],"min":[-1.0,-1.0,-1.0],"type":"VEC3"},{"bufferView":7,"componentType":5126,"count":8383,"max":[1.0,1.0],"min":[0.0,0.0],"type":"VEC2"}],"asset":{"generator":"Soft8Soft Verge3D for Blender add-on","version":"2.0"},"bufferViews":[{"buffer":0,"byteLength":96768,"byteOffset":0,"target":34963},{"buffer":0,"byteLength":100596,"byteOffset":96768,"target":34962},{"buffer":0,"byteLength":100596,"byteOffset":197364,"target":34962},{"buffer":0,"byteLength":67064,"byteOffset":297960,"target":34962},{"buffer":0,"byteLength":96768,"byteOffset":365024,"target":34963},{"buffer":0,"byteLength":100596,"byteOffset":461792,"target":34962},{"buffer":0,"byteLength":100596,"byteOffset":562388,"target":34962},{"buffer":0,"byteLength":67064,"byteOffset":662984,"target":34962}],"buffers":[{"byteLength":730048,"uri":"untitled.bin"}],"cameras":[{"extensions":{"S8S_v3d_camera_data":{"controls":"ORBIT","enablePan":true,"moveSpeed":1.0,"orbitMaxDistance":100.0,"orbitMaxPolarAngle":3.1415927410125732,"orbitMaxZoom":100.0,"orbitMinDistance":0.0,"orbitMinPolarAngle":0.0,"orbitMinZoom":0.009999999776482582,"orbitTarget":[0.0,0.0,-0.0],"rotateSpeed":1.0,"viewportFitInitialAspect":1.7777777777777777,"viewportFitType":"AUTO"}},"name":"Camera.002","perspective":{"aspectRatio":1.7777777777777777,"yfov":0.39959652046304894,"zfar":1000.0,"znear":0.10000000149011612},"type":"perspective"}],"extensions":{"S8S_v3d_data":{"lights":[{"color":[1.0,1.0,1.0],"intensity":1.0,"name":"Spot","profile":"blender","shadow":{"bias":-0.0018,"cameraFar":100,"cameraFov":0,"cameraNear":0.1,"csm":{"maxDistance":200.0},"enabled":true,"expBias":2.5,"mapSize":1024,"radius":1.0,"slopeScaledBias":2.5},"type":"directional"}]}},"extensionsUsed":["S8S_v3d_texture_data","S8S_v3d_material_data","S8S_v3d_camera_data","S8S_v3d_data","S8S_v3d_mesh_data","S8S_v3d_node_data","S8S_v3d_scene_data"],"images":[{"uri":"colors.jpg"},{"uri":"clouds.jpg"}],"materials":[{"extensions":{"S8S_v3d_material_data":{"nodeGraph":{"edges":[{"fromNode":0,"fromOutput":0,"toInput":0,"toNode":1},{"fromNode":2,"fromOutput":0,"toInput":0,"toNode":0}],"nodes":[{"inputs":[[0.800000011920929,0.800000011920929,0.800000011920929,1.0],0.0,[1.0,0.20000000298023224,0.10000000149011612],[0.800000011920929,0.800000011920929,0.800000011920929,1.0],0.0,0.5,0.0,0.5,0.0,0.0,0.0,0.5,0.0,0.029999999329447746,1.4500000476837158,0.0,0.0,[0.0,0.0,0.0,1.0],1.0,1.0,[0.0,0.0,0.0],[0.0,0.0,0.0],[0.0,0.0,0.0]],"is_active_output":false,"name":"Principled BSDF","outputs":[[0,0,0,0]],"type":"BSDF_PRINCIPLED_BL"},{"inputs":[[0,0,0,0],[0,0,0,0],[0.0,0.0,0.0]],"is_active_output":true,"name":"Material Output","outputs":[],"type":"OUTPUT_MATERIAL_BL"},{"inputs":[[0.0,0.0,0.0]],"is_active_output":false,"name":"Image Texture","outputs":[[0.0,0.0,0.0,0.0],0.0],"projection":"FLAT","projectionBlend":0.0,"texture":0,"type":"TEX_IMAGE_BL"}]},"useCastShadows":true}},"name":"Material.002"},{"extensions":{"S8S_v3d_material_data":{"nodeGraph":{"edges":[{"fromNode":1,"fromOutput":0,"toInput":0,"toNode":0},{"fromNode":2,"fromOutput":0,"toInput":0,"toNode":1},{"fromNode":3,"fromOutput":0,"toInput":1,"toNode":1},{"fromNode":4,"fromOutput":0,"toInput":0,"toNode":3}],"nodes":[{"inputs":[[0,0,0,0],[0,0,0,0],[0.0,0.0,0.0]],"is_active_output":true,"name":"Material Output","outputs":[],"type":"OUTPUT_MATERIAL_BL"},{"inputs":[[0,0,0,0],[0,0,0,0]],"is_active_output":false,"name":"Add Shader","outputs":[[0,0,0,0]],"type":"ADD_SHADER_BL"},{"inputs":[[0.800000011920929,0.800000011920929,0.800000011920929,1.0],0.0,[1.0,0.20000000298023224,0.10000000149011612],[0.800000011920929,0.800000011920929,0.800000011920929,1.0],0.0,0.5,0.0,0.0,0.0,0.0,0.0,0.5,0.0,0.029999999329447746,1.4500000476837158,1.0,0.0,[0.0,0.0,0.0,1.0],1.0,1.0,[0.0,0.0,0.0],[0.0,0.0,0.0],[0.0,0.0,0.0]],"is_active_output":false,"name":"Principled BSDF","outputs":[[0,0,0,0]],"type":"BSDF_PRINCIPLED_BL"},{"inputs":[[0.800000011920929,0.800000011920929,0.800000011920929,1.0],0.0,[0.0,0.0,0.0]],"is_active_output":false,"name":"Diffuse BSDF","outputs":[[0,0,0,0]],"type":"BSDF_DIFFUSE_BL"},{"inputs":[[0.0,0.0,0.0]],"is_active_output":false,"name":"Image Texture","outputs":[[0.0,0.0,0.0,0.0],0.0],"projection":"FLAT","projectionBlend":0.0,"texture":1,"type":"TEX_IMAGE_BL"}]},"useCastShadows":true}},"name":"Material.003"},{"extensions":{"S8S_v3d_material_data":{"nodeGraph":{"edges":[{"fromNode":1,"fromOutput":0,"toInput":0,"toNode":0}],"nodes":[{"inputs":[[0,0,0,0],[0,0,0,0]],"is_active_output":true,"name":"World Output","outputs":[],"type":"OUTPUT_WORLD_BL"},{"inputs":[[0.0,0.0,0.0,1.0],0.0],"is_active_output":false,"name":"Background","outputs":[[0,0,0,0]],"type":"BACKGROUND_BL"}]},"useCastShadows":true}},"name":"Verge3D_Environment_World"}],"meshes":[{"extensions":{"S8S_v3d_mesh_data":{"colorLayers":{},"uvLayers":{"UVMap":"TEXCOORD_0"}}},"name":"Sphere.001","primitives":[{"attributes":{"NORMAL":2,"POSITION":1,"TEXCOORD_0":3},"indices":0,"material":0,"mode":4}]},{"extensions":{"S8S_v3d_mesh_data":{"colorLayers":{},"uvLayers":{"UVMap":"TEXCOORD_0"}}},"name":"Sphere.002","primitives":[{"attributes":{"NORMAL":6,"POSITION":5,"TEXCOORD_0":7},"indices":4,"material":1,"mode":4}]}],"nodes":[{"extensions":{"S8S_v3d_node_data":{"frustumCulling":true,"groupNames":["Collection"],"hidden":false,"renderOrder":0,"useShadows":true}},"mesh":1,"name":"Sphere.001","rotation":[0.2033603936433792,-0.9776928424835205,-0.01070123165845871,0.05144516006112099],"scale":[1.0049999952316284,1.0049999952316284,1.0049999952316284]},{"children":[0],"name":"v3d_Proxy_Node_0_Sphere.001","rotation":[-0.2033603936433792,0.9776928424835205,0.010700506158173084,0.05144573375582695],"scale":[0.9999999403953552,1.0,1.0]},{"extensions":{"S8S_v3d_node_data":{"frustumCulling":true,"groupNames":["Collection"],"hidden":false,"renderOrder":0,"useShadows":true}},"name":"untitled","rotation":[0.7071068286895752,0.0,-0.0,0.7071067094802856]},{"extensions":{"S8S_v3d_node_data":{"frustumCulling":true,"groupNames":["Collection"],"hidden":false,"light":0,"renderOrder":0}},"name":"Spot","rotation":[-0.4997648596763611,-0.5002350807189941,0.5002350807189941,0.4997648596763611],"scale":[1.0,0.9999999403953552,0.9999999403953552],"translation":[0.0,9.41630744934082,0.0]},{"children":[1],"extensions":{"S8S_v3d_node_data":{"frustumCulling":true,"groupNames":["Collection"],"hidden":false,"renderOrder":0,"useShadows":true}},"mesh":0,"name":"Sphere","rotation":[0.2033604085445404,-0.9776928424835205,-0.01070079579949379,0.05144573375582695],"scale":[0.9999999403953552,1.0,1.0]},{"children":[8],"extensions":{"S8S_v3d_node_data":{"frustumCulling":true,"groupNames":["Collection"],"hidden":false,"renderOrder":0,"useShadows":true}},"name":"Circle"},{"extensions":{"S8S_v3d_node_data":{"frustumCulling":true,"groupNames":["Collection"],"hidden":false,"renderOrder":0,"useShadows":true}},"name":"untitled.001","rotation":[0.7071068286895752,0.0,-0.0,0.7071067094802856]},{"camera":0,"extensions":{"S8S_v3d_node_data":{"frustumCulling":true,"groupNames":["Collection"],"hidden":false,"renderOrder":0}},"name":"Camera","rotation":[-3.004522852734226e-08,0.7071068286895752,3.00452391854833e-08,0.7071068286895752],"scale":[1.0,0.9999999403953552,0.9999999403953552],"translation":[8.0,0.0,0.0]},{"children":[7],"name":"v3d_Proxy_Node_0_Camera","rotation":[-0.5000032782554626,0.49999669194221497,-0.49999669194221497,0.5000033378601074],"scale":[0.9999998807907104,0.9999997615814209,0.9999998807907104],"translation":[7.999999046325684,0.00010395013669040054,-1.859223885958272e-11]}],"samplers":[{}],"scene":0,"scenes":[{"extensions":{"S8S_v3d_scene_data":{"aaMethod":"AUTO","iblEnvironmentMode":"PMREM","physicallyCorrectLights":true,"pmremMaxTileSize":512,"shadowMap":{"esmDistanceScale":1.0,"renderReverseSided":false,"renderSingleSided":true,"type":"PCFPOISSON"},"toneMapping":{"type":"filmicBlender"},"worldMaterial":2}},"extras":{"animFrameRate":30,"coordSystem":"Z_UP_RIGHT"},"name":"Scene","nodes":[4,3,5,2,6]}],"textures":[{"extensions":{"S8S_v3d_texture_data":{"colorSpace":"srgb"}},"name":"colors.jpg","sampler":0,"source":0},{"extensions":{"S8S_v3d_texture_data":{"colorSpace":"srgb"}},"name":"clouds.jpg","sampler":0,"source":1}]}
